<svg width="23" height="23" viewBox="0 0 23 23" fill="none" xmlns="http://www.w3.org/2000/svg">
<path d="M22.3279 6.61147C22.3142 5.67141 22.14 4.7388 21.8067 3.85959C21.2233 2.35822 20.0354 1.17104 18.5315 0.589866C17.662 0.263267 16.7428 0.0881695 15.8123 0.0683003C14.6157 0.014902 14.2363 0 11.1988 0C8.16117 0 7.77183 8.32707e-08 6.58392 0.0683003C5.65473 0.0881695 4.7355 0.263267 3.86602 0.589866C2.36215 1.17104 1.17299 2.35822 0.590848 3.85959C0.263705 4.72762 0.0870724 5.64533 0.0696579 6.57297C0.0161706 7.76884 0 8.1476 0 11.1801C0 14.2127 -9.26771e-09 14.6001 0.0696579 15.7873C0.0883163 16.7162 0.263705 17.6326 0.590848 18.5032C1.17423 20.0033 2.36215 21.1905 3.86726 21.7716C4.73301 22.1094 5.65224 22.3007 6.58516 22.3305C7.78303 22.3839 8.16242 22.4 11.2 22.4C14.2376 22.4 14.6269 22.4 15.8148 22.3305C16.744 22.3118 17.6633 22.1367 18.534 21.8101C20.0378 21.2277 21.2258 20.0405 21.8092 18.5404C22.1363 17.6711 22.3117 16.7547 22.3303 15.8245C22.3838 14.6299 22.4 14.2512 22.4 11.2174C22.3975 8.18486 22.3975 7.79989 22.3279 6.61147ZM11.1913 16.9149C8.01439 16.9149 5.44078 14.3455 5.44078 11.1739C5.44078 8.00231 8.01439 5.43298 11.1913 5.43298C14.3657 5.43298 16.9418 8.00231 16.9418 11.1739C16.9418 14.3455 14.3657 16.9149 11.1913 16.9149ZM17.1707 6.55931C16.4281 6.55931 15.8298 5.96075 15.8298 5.22062C15.8298 4.4805 16.4281 3.88194 17.1707 3.88194C17.9108 3.88194 18.5104 4.4805 18.5104 5.22062C18.5104 5.96075 17.9108 6.55931 17.1707 6.55931Z" fill="currentColor"/>
</svg>
